{"asset":{"version":"2.0","generator":"VECTARY"},"scene":0,"extensionsUsed":["KHR_texture_transform"],"nodes":[{"translation":[-0.0832679669231423,0.24323904641703412,0.1693529558741341],"scale":[0.0017212865170836403,0.00008991385827250067,0.0008375154075960377],"rotation":[-0.7071067811865475,0,0,0.7071067811865476],"name":"Box - baked","mesh":0},{"translation":[0.0832679669231423,0.24323904641703412,0.1693529558741341],"scale":[-0.0017212865170836403,0.00008991385827250067,0.0008375154075960377],"rotation":[-0.7071067811865475,0,0,0.7071067811865476],"name":"Box - baked","mesh":1},{"translation":[0,0,0],"scale":[0.001,0.001,0.001],"rotation":[-0.7071067811865475,0,0,0.7071067811865476],"name":"Capsule 1","mesh":2},{"translation":[0,0,0],"scale":[0.001,0.001,0.001],"rotation":[-0.7071067811865475,0,0,0.7071067811865476],"name":"Capsule 2","mesh":3},{"translation":[-0.0022556691401905793,0.021349972950133776,-0.001999504016701051],"scale":[0.003598891347300108,0.004673331759935763,0.004330339470097658],"rotation":[-0.5,-0.4999999999999999,-0.5,0.5000000000000001],"name":"Capsule","mesh":4},{"translation":[-0.0003741379924523032,0.09521007002010368,-0.021910682990097605],"scale":[0.0010219511193468958,0.0011009318658256478,0.0008285047889724501],"rotation":[-0.7249242736675597,0,0,0.6888285689832854],"name":"Default StructuredGeometry Name","mesh":5},{"translation":[-0.002255669140190572,0.04563331040349144,0.03691672564553011],"scale":[0.003598891347300108,0.00423139758874971,0.004519922904499498],"rotation":[-0.5,-0.4999999999999999,-0.5,0.5000000000000001],"name":"Default StructuredGeometry Name","mesh":6},{"translation":[0.07768764864937254,0.24289896072884656,0.1348178750769613],"scale":[0.0019723845189732114,0.004673331759935763,0.004330339470097658],"rotation":[-0.5,-0.4999999999999999,-0.5,0.5000000000000001],"name":"Default StructuredGeometry Name","mesh":7},{"translation":[-0.08313707922025056,0.26973864861327784,0.1541109642117144],"scale":[0.0014360345811522256,0.004673331759935763,0.004330339470097658],"rotation":[-0.5,-0.4999999999999999,-0.5,0.5000000000000001],"name":"Default StructuredGeometry Name","mesh":8},{"translation":[-0.08236366148986751,0.2428989607288466,0.13481787507696136],"scale":[0.0019723845189732114,0.004673331759935763,0.004330339470097658],"rotation":[-0.5,-0.4999999999999999,-0.5,0.5000000000000001],"name":"Default StructuredGeometry Name","mesh":9},{"translation":[0.07754803832343801,0.2686889432185379,0.1541109642117144],"scale":[0.0014360345811522256,0.004673331759935763,0.004330339470097658],"rotation":[-0.5,-0.4999999999999999,-0.5,0.5000000000000001],"name":"Default StructuredGeometry Name","mesh":10},{"translation":[0,0,0],"scale":[0.001,0.001,0.001],"rotation":[-0.7071067811865475,0,0,0.7071067811865476],"name":"Barba - baked","children":[12,13]},{"translation":[0,0,0],"scale":[1,1,1],"rotation":[0,0,0,1],"name":"Barba - baked 1","mesh":11},{"translation":[0,0,0],"scale":[1,1,1],"rotation":[0,0,0,1],"name":"Barba - baked 2","mesh":12},{"translation":[0,0,0],"scale":[0.001,0.001,0.001],"rotation":[-0.7071067811865475,0,0,0.7071067811865476],"name":"Baffi - baked","children":[15,16]},{"translation":[56.85174049013384,67.44133193733569,-67.29889569221413],"scale":[0.8481161236310184,0.8442027418955477,0.801004494673223],"rotation":[0,0,-0.13137282234711942,0.9913330326124276],"name":"Baffi - baked 1","mesh":13},{"translation":[-56.85174049013384,67.44133193733569,-67.29889569221413],"scale":[-0.8481161236310184,0.8442027418955477,0.801004494673223],"rotation":[0,0,0.13137282234711942,0.9913330326124276],"name":"Baffi - baked 2","mesh":14},{"translation":[0.17460397485095377,0.27858365159689996,0.07242808200581084],"scale":[0.0010326041863735435,0.0015076021121053734,0.001],"rotation":[-0.7368468948651831,-0.02518977771570778,-0.02308217858747245,0.6751957802429063],"name":"Object 3","mesh":15},{"translation":[-0.17460397485095377,0.27858365159689996,0.07242808200581084],"scale":[-0.0010326041863735435,0.0015076021121053734,0.001],"rotation":[-0.7368468948651831,0.02518977771570778,0.02308217858747245,0.6751957802429063],"name":"Object 3","mesh":16},{"translation":[-0.043858754323272464,0.10174133698124732,0.1399385132051654],"scale":[0.0009203011614256282,0.0010162076485689744,0.0010162076485689744],"rotation":[-0.7071067811865475,0,0,0.7071067811865476],"name":"Object 1","mesh":17},{"translation":[0.043858754323272464,0.10174133698124732,0.1399385132051654],"scale":[-0.0009203011614256282,0.0010162076485689744,0.0010162076485689744],"rotation":[-0.7071067811865475,0,0,0.7071067811865476],"name":"Object 1","mesh":18},{"translation":[0,0,0],"scale":[0.001,0.001,0.001],"rotation":[-0.7071067811865475,0,0,0.7071067811865476],"name":"Symmetry - baked","children":[22,23]},{"translation":[-37.43415099862442,-149.48759872302267,113.52239944220055],"scale":[0.7841667111839227,1.0128950349019619,0.7545843715093042],"rotation":[-0.045557189498967095,0.0018254472566923128,0.04504674264120898,0.9979438855202774],"name":"Symmetry - baked 1","mesh":19},{"translation":[37.43415099862439,-149.48759872302267,113.52239944220055],"scale":[-0.7841667111839226,1.0128950349019619,0.7545843715093042],"rotation":[-0.045557189498967095,-0.0018254472566923206,-0.04504674264120886,0.9979438855202774],"name":"Symmetry - baked 2","mesh":20},{"translation":[0.000773986335470642,0.2803500440333834,1.2108872819441407],"scale":[1,1,1],"rotation":[1.1102230246251565e-16,0,1.1102230246251565e-16,1],"name":"Camera","camera":0}],"materials":[{"pbrMetallicRoughness":{"baseColorFactor":[0,0,0,1],"metallicFactor":0,"roughnessFactor":1},"name":"Box material 1","emissiveFactor":[0,0,0],"alphaMode":"OPAQUE","doubleSided":true},{"pbrMetallicRoughness":{"baseColorFactor":[0.14799802298268516,0.015175238159625197,0.000005077051900661759,1],"metallicFactor":0,"roughnessFactor":1},"name":"Capsule material 2","emissiveFactor":[0,0,0],"alphaMode":"OPAQUE","doubleSided":false},{"pbrMetallicRoughness":{"baseColorFactor":[0.14799802298268516,0.015175238159625197,0.000005077051900661759,1],"metallicFactor":0,"roughnessFactor":1},"name":"Capsule material 1","emissiveFactor":[0,0,0],"alphaMode":"OPAQUE","doubleSided":false},{"pbrMetallicRoughness":{"baseColorFactor":[1,0.4995052766030301,0.41514809165590655,1],"metallicFactor":0,"roughnessFactor":1},"name":"Capsule material","emissiveFactor":[0,0,0],"alphaMode":"OPAQUE","doubleSided":false},{"pbrMetallicRoughness":{"baseColorFactor":[0.25902733248960613,0.07382776632778461,0.04455262731642138,1],"metallicFactor":0,"roughnessFactor":1},"name":"Polyhedron material 5","emissiveFactor":[0,0,0],"alphaMode":"OPAQUE","doubleSided":false},{"pbrMetallicRoughness":{"baseColorFactor":[1,0.4995052766030301,0.41514809165590655,1],"metallicFactor":0,"roughnessFactor":1},"name":"Polyhedron material","emissiveFactor":[0,0,0],"alphaMode":"OPAQUE","doubleSided":false},{"pbrMetallicRoughness":{"baseColorFactor":[1,1,1,1],"metallicFactor":0,"roughnessFactor":1},"name":"Polyhedron material 2","emissiveFactor":[0,0,0],"alphaMode":"OPAQUE","doubleSided":false},{"pbrMetallicRoughness":{"baseColorFactor":[0,0,0,1],"metallicFactor":0,"roughnessFactor":0.2},"name":"Polyhedron material 6","emissiveFactor":[0,0,0],"alphaMode":"OPAQUE","doubleSided":true},{"pbrMetallicRoughness":{"baseColorFactor":[1,1,1,1],"metallicFactor":0,"roughnessFactor":1},"name":"Polyhedron material 3","emissiveFactor":[0,0,0],"alphaMode":"OPAQUE","doubleSided":false},{"pbrMetallicRoughness":{"baseColorFactor":[0,0,0,1],"metallicFactor":0,"roughnessFactor":0.2},"name":"Polyhedron material 4","emissiveFactor":[0,0,0],"alphaMode":"OPAQUE","doubleSided":false},{"pbrMetallicRoughness":{"baseColorFactor":[0.25902733248960613,0.07382776632778461,0.04455262731642138,1],"metallicFactor":0,"roughnessFactor":1},"name":"Object material 2","emissiveFactor":[0,0,0],"alphaMode":"OPAQUE","doubleSided":true},{"pbrMetallicRoughness":{"baseColorFactor":[0.25902733248960613,0.07382776632778461,0.04455262731642138,1],"metallicFactor":0,"roughnessFactor":1},"name":"Object material 6","emissiveFactor":[0,0,0],"alphaMode":"OPAQUE","doubleSided":true},{"pbrMetallicRoughness":{"baseColorFactor":[0.24680041960155044,0.08464151072542946,0.06381487094867724,1],"metallicFactor":0,"roughnessFactor":0.2},"name":"Object material 4","emissiveFactor":[0,0,0],"alphaMode":"OPAQUE","doubleSided":true},{"pbrMetallicRoughness":{"baseColorFactor":[0.24680041960155044,0.08464151072542946,0.06381487094867724,1],"metallicFactor":0,"roughnessFactor":0.2},"name":"Object material 5","emissiveFactor":[0,0,0],"alphaMode":"OPAQUE","doubleSided":true},{"pbrMetallicRoughness":{"baseColorFactor":[0,0,0,1],"metallicFactor":0,"roughnessFactor":0.2},"name":"Object material 3","emissiveFactor":[0,0,0],"alphaMode":"OPAQUE","doubleSided":false},{"pbrMetallicRoughness":{"baseColorFactor":[1,0.2388279842720483,0.3203815487918104,1],"metallicFactor":0,"roughnessFactor":1},"name":"Object material 7","emissiveFactor":[0,0,0],"alphaMode":"OPAQUE","doubleSided":false},{"pbrMetallicRoughness":{"baseColorFactor":[0,0,0,1],"metallicFactor":0,"roughnessFactor":1},"name":"Object material 8","emissiveFactor":[0,0,0],"alphaMode":"OPAQUE","doubleSided":false},{"pbrMetallicRoughness":{"baseColorFactor":[0,0,0,1],"metallicFactor":0,"roughnessFactor":1},"name":"Object material 9","emissiveFactor":[0,0,0],"alphaMode":"OPAQUE","doubleSided":false}],"meshes":[{"primitives":[{"mode":4,"attributes":{"POSITION":1,"NORMAL":2,"TEXCOORD_0":3},"material":0,"indices":0}]},{"primitives":[{"mode":4,"attributes":{"POSITION":1,"NORMAL":2,"TEXCOORD_0":3},"material":0,"indices":0}]},{"primitives":[{"mode":4,"attributes":{"POSITION":5,"NORMAL":6,"TEXCOORD_0":7},"material":1,"indices":4}]},{"primitives":[{"mode":4,"attributes":{"POSITION":9,"NORMAL":10,"TEXCOORD_0":11},"material":2,"indices":8}]},{"primitives":[{"mode":4,"attributes":{"POSITION":13,"NORMAL":14,"TEXCOORD_0":15},"material":3,"indices":12}]},{"primitives":[{"mode":4,"attributes":{"POSITION":17,"NORMAL":18,"TEXCOORD_0":19},"material":4,"indices":16}]},{"primitives":[{"mode":4,"attributes":{"POSITION":21,"NORMAL":22,"TEXCOORD_0":23},"material":5,"indices":20}]},{"primitives":[{"mode":4,"attributes":{"POSITION":25,"NORMAL":26,"TEXCOORD_0":27},"material":6,"indices":24}]},{"primitives":[{"mode":4,"attributes":{"POSITION":29,"NORMAL":30,"TEXCOORD_0":31},"material":7,"indices":28}]},{"primitives":[{"mode":4,"attributes":{"POSITION":33,"NORMAL":34,"TEXCOORD_0":35},"material":8,"indices":32}]},{"primitives":[{"mode":4,"attributes":{"POSITION":37,"NORMAL":38,"TEXCOORD_0":39},"material":9,"indices":36}]},{"primitives":[{"mode":4,"attributes":{"POSITION":41,"NORMAL":42,"TEXCOORD_0":43},"material":10,"indices":40}]},{"primitives":[{"mode":4,"attributes":{"POSITION":45,"NORMAL":46,"TEXCOORD_0":47},"material":11,"indices":44}]},{"primitives":[{"mode":4,"attributes":{"POSITION":49,"NORMAL":50,"TEXCOORD_0":51},"material":12,"indices":48}]},{"primitives":[{"mode":4,"attributes":{"POSITION":53,"NORMAL":54,"TEXCOORD_0":55},"material":13,"indices":52}]},{"primitives":[{"mode":4,"attributes":{"POSITION":57,"NORMAL":58,"TEXCOORD_0":59},"material":14,"indices":56}]},{"primitives":[{"mode":4,"attributes":{"POSITION":57,"NORMAL":58,"TEXCOORD_0":59},"material":14,"indices":56}]},{"primitives":[{"mode":4,"attributes":{"POSITION":61,"NORMAL":62,"TEXCOORD_0":63},"material":15,"indices":60}]},{"primitives":[{"mode":4,"attributes":{"POSITION":61,"NORMAL":62,"TEXCOORD_0":63},"material":15,"indices":60}]},{"primitives":[{"mode":4,"attributes":{"POSITION":65,"NORMAL":66,"TEXCOORD_0":67},"material":16,"indices":64}]},{"primitives":[{"mode":4,"attributes":{"POSITION":69,"NORMAL":70,"TEXCOORD_0":71},"material":17,"indices":68}]}],"accessors":[{"bufferView":0,"byteOffset":0,"componentType":5125,"count":120,"type":"SCALAR"},{"bufferView":1,"byteOffset":0,"componentType":5126,"count":120,"max":[50,5.312105655670166,97.3165512084961],"min":[-50,-5.312105655670166,-6.787148967846157e-14],"type":"VEC3"},{"bufferView":2,"byteOffset":0,"componentType":5126,"count":120,"type":"VEC3"},{"bufferView":3,"byteOffset":0,"componentType":5126,"count":120,"type":"VEC2"},{"bufferView":4,"byteOffset":0,"componentType":5125,"count":216,"type":"SCALAR"},{"bufferView":5,"byteOffset":0,"componentType":5126,"count":216,"max":[115.3656997680664,-102.01188659667969,363.16033935546875],"min":[46.699710845947266,-141.65769958496094,316.8924865722656],"type":"VEC3"},{"bufferView":6,"byteOffset":0,"componentType":5126,"count":216,"type":"VEC3"},{"bufferView":7,"byteOffset":0,"componentType":5126,"count":216,"type":"VEC2"},{"bufferView":8,"byteOffset":0,"componentType":5125,"count":216,"type":"SCALAR"},{"bufferView":9,"byteOffset":0,"componentType":5126,"count":216,"max":[-54.5869026184082,-100.57940673828125,360.1898498535156],"min":[-125.20304870605469,-139.054443359375,316.02838134765625],"type":"VEC3"},{"bufferView":10,"byteOffset":0,"componentType":5126,"count":216,"type":"VEC3"},{"bufferView":11,"byteOffset":0,"componentType":5126,"count":216,"type":"VEC2"},{"bufferView":12,"byteOffset":0,"componentType":5125,"count":48,"type":"SCALAR"},{"bufferView":13,"byteOffset":0,"componentType":5126,"count":48,"max":[51.878604888916016,9.680508613586426,65.3004379272461],"min":[33.07161331176758,-9.680508613586426,35.8929557800293],"type":"VEC3"},{"bufferView":14,"byteOffset":0,"componentType":5126,"count":48,"type":"VEC3"},{"bufferView":15,"byteOffset":0,"componentType":5126,"count":48,"type":"VEC2"},{"bufferView":16,"byteOffset":0,"componentType":5125,"count":240,"type":"SCALAR"},{"bufferView":17,"byteOffset":0,"componentType":5126,"count":240,"max":[224.39764404296875,223.3671112060547,527.7079467773438],"min":[-225.37973022460938,-149.32122802734375,16.52135467529297],"type":"VEC3"},{"bufferView":18,"byteOffset":0,"componentType":5126,"count":240,"type":"VEC3"},{"bufferView":19,"byteOffset":0,"componentType":5126,"count":240,"type":"VEC2"},{"bufferView":20,"byteOffset":0,"componentType":5125,"count":240,"type":"SCALAR"},{"bufferView":21,"byteOffset":0,"componentType":5126,"count":240,"max":[33.59345626831055,46.51372528076172,103.9054946899414],"min":[-55.346561431884766,-46.51372528076172,-3.0532784461975098],"type":"VEC3"},{"bufferView":22,"byteOffset":0,"componentType":5126,"count":240,"type":"VEC3"},{"bufferView":23,"byteOffset":0,"componentType":5126,"count":240,"type":"VEC2"},{"bufferView":24,"byteOffset":0,"componentType":5125,"count":240,"type":"SCALAR"},{"bufferView":25,"byteOffset":0,"componentType":5126,"count":240,"max":[10,10,20],"min":[-10,-10,0],"type":"VEC3"},{"bufferView":26,"byteOffset":0,"componentType":5126,"count":240,"type":"VEC3"},{"bufferView":27,"byteOffset":0,"componentType":5126,"count":240,"type":"VEC2"},{"bufferView":28,"byteOffset":0,"componentType":5125,"count":240,"type":"SCALAR"},{"bufferView":29,"byteOffset":0,"componentType":5126,"count":240,"max":[4,4,8],"min":[-4,-4,0],"type":"VEC3"},{"bufferView":30,"byteOffset":0,"componentType":5126,"count":240,"type":"VEC3"},{"bufferView":31,"byteOffset":0,"componentType":5126,"count":240,"type":"VEC2"},{"bufferView":32,"byteOffset":0,"componentType":5125,"count":240,"type":"SCALAR"},{"bufferView":33,"byteOffset":0,"componentType":5126,"count":240,"max":[10,10,20],"min":[-10,-10,0],"type":"VEC3"},{"bufferView":34,"byteOffset":0,"componentType":5126,"count":240,"type":"VEC3"},{"bufferView":35,"byteOffset":0,"componentType":5126,"count":240,"type":"VEC2"},{"bufferView":36,"byteOffset":0,"componentType":5125,"count":240,"type":"SCALAR"},{"bufferView":37,"byteOffset":0,"componentType":5126,"count":240,"max":[4,4,8],"min":[-4,-4,0],"type":"VEC3"},{"bufferView":38,"byteOffset":0,"componentType":5126,"count":240,"type":"VEC3"},{"bufferView":39,"byteOffset":0,"componentType":5126,"count":240,"type":"VEC2"},{"bufferView":40,"byteOffset":0,"componentType":5125,"count":222,"type":"SCALAR"},{"bufferView":41,"byteOffset":0,"componentType":5126,"count":222,"max":[226.29400634765625,41.81979751586914,312.27606201171875],"min":[-15.841609001159668,-138.96841430664062,29.407609939575195],"type":"VEC3"},{"bufferView":42,"byteOffset":0,"componentType":5126,"count":222,"type":"VEC3"},{"bufferView":43,"byteOffset":0,"componentType":5126,"count":222,"type":"VEC2"},{"bufferView":44,"byteOffset":0,"componentType":5125,"count":222,"type":"SCALAR"},{"bufferView":45,"byteOffset":0,"componentType":5126,"count":222,"max":[15.844639778137207,41.82289123535156,312.2742004394531],"min":[-226.29095458984375,-138.96531677246094,29.405733108520508],"type":"VEC3"},{"bufferView":46,"byteOffset":0,"componentType":5126,"count":222,"type":"VEC3"},{"bufferView":47,"byteOffset":0,"componentType":5126,"count":222,"type":"VEC2"},{"bufferView":48,"byteOffset":0,"componentType":5125,"count":120,"type":"SCALAR"},{"bufferView":49,"byteOffset":0,"componentType":5126,"count":120,"max":[-10.468225479125977,-262.25738525390625,313.07684326171875],"min":[-90.8748550415039,-283.7834167480469,301.90362548828125],"type":"VEC3"},{"bufferView":50,"byteOffset":0,"componentType":5126,"count":120,"type":"VEC3"},{"bufferView":51,"byteOffset":0,"componentType":5126,"count":120,"type":"VEC2"},{"bufferView":52,"byteOffset":0,"componentType":5125,"count":120,"type":"SCALAR"},{"bufferView":53,"byteOffset":0,"componentType":5126,"count":120,"max":[-10.468225479125977,-262.25738525390625,313.07684326171875],"min":[-90.8748550415039,-283.7834167480469,301.90362548828125],"type":"VEC3"},{"bufferView":54,"byteOffset":0,"componentType":5126,"count":120,"type":"VEC3"},{"bufferView":55,"byteOffset":0,"componentType":5126,"count":120,"type":"VEC2"},{"bufferView":56,"byteOffset":0,"componentType":5125,"count":96,"type":"SCALAR"},{"bufferView":57,"byteOffset":0,"componentType":5126,"count":96,"max":[13.954723358154297,65.94833374023438,22.912050247192383],"min":[-13.954723358154297,-65.94833374023438,1.6983650102323899e-15],"type":"VEC3"},{"bufferView":58,"byteOffset":0,"componentType":5126,"count":96,"type":"VEC3"},{"bufferView":59,"byteOffset":0,"componentType":5126,"count":96,"type":"VEC2"},{"bufferView":60,"byteOffset":0,"componentType":5125,"count":144,"type":"SCALAR"},{"bufferView":61,"byteOffset":0,"componentType":5126,"count":144,"max":[49.75770950317383,21.422462463378906,69.71858215332031],"min":[-49.75770950317383,-21.422462463378906,-1.532107773982716e-14],"type":"VEC3"},{"bufferView":62,"byteOffset":0,"componentType":5126,"count":144,"type":"VEC3"},{"bufferView":63,"byteOffset":0,"componentType":5126,"count":144,"type":"VEC2"},{"bufferView":64,"byteOffset":0,"componentType":5125,"count":144,"type":"SCALAR"},{"bufferView":65,"byteOffset":0,"componentType":5126,"count":144,"max":[50.083717346191406,21.48476791381836,69.00906372070312],"min":[-50.083717346191406,-21.48476791381836,-2.5757174171303632e-14],"type":"VEC3"},{"bufferView":66,"byteOffset":0,"componentType":5126,"count":144,"type":"VEC3"},{"bufferView":67,"byteOffset":0,"componentType":5126,"count":144,"type":"VEC2"},{"bufferView":68,"byteOffset":0,"componentType":5125,"count":144,"type":"SCALAR"},{"bufferView":69,"byteOffset":0,"componentType":5126,"count":144,"max":[50.083717346191406,21.48476791381836,69.00906372070312],"min":[-50.083717346191406,-21.48476791381836,-2.5757174171303632e-14],"type":"VEC3"},{"bufferView":70,"byteOffset":0,"componentType":5126,"count":144,"type":"VEC3"},{"bufferView":71,"byteOffset":0,"componentType":5126,"count":144,"type":"VEC2"}],"bufferViews":[{"buffer":0,"byteOffset":0,"byteLength":480,"target":34963},{"buffer":0,"byteOffset":480,"byteLength":1440,"target":34962},{"buffer":0,"byteOffset":1920,"byteLength":1440,"target":34962},{"buffer":0,"byteOffset":3360,"byteLength":960,"target":34962},{"buffer":0,"byteOffset":4320,"byteLength":864,"target":34963},{"buffer":0,"byteOffset":5184,"byteLength":2592,"target":34962},{"buffer":0,"byteOffset":7776,"byteLength":2592,"target":34962},{"buffer":0,"byteOffset":10368,"byteLength":1728,"target":34962},{"buffer":0,"byteOffset":12096,"byteLength":864,"target":34963},{"buffer":0,"byteOffset":12960,"byteLength":2592,"target":34962},{"buffer":0,"byteOffset":15552,"byteLength":2592,"target":34962},{"buffer":0,"byteOffset":18144,"byteLength":1728,"target":34962},{"buffer":0,"byteOffset":19872,"byteLength":192,"target":34963},{"buffer":0,"byteOffset":20064,"byteLength":576,"target":34962},{"buffer":0,"byteOffset":20640,"byteLength":576,"target":34962},{"buffer":0,"byteOffset":21216,"byteLength":384,"target":34962},{"buffer":0,"byteOffset":21600,"byteLength":960,"target":34963},{"buffer":0,"byteOffset":22560,"byteLength":2880,"target":34962},{"buffer":0,"byteOffset":25440,"byteLength":2880,"target":34962},{"buffer":0,"byteOffset":28320,"byteLength":1920,"target":34962},{"buffer":0,"byteOffset":30240,"byteLength":960,"target":34963},{"buffer":0,"byteOffset":31200,"byteLength":2880,"target":34962},{"buffer":0,"byteOffset":34080,"byteLength":2880,"target":34962},{"buffer":0,"byteOffset":36960,"byteLength":1920,"target":34962},{"buffer":0,"byteOffset":38880,"byteLength":960,"target":34963},{"buffer":0,"byteOffset":39840,"byteLength":2880,"target":34962},{"buffer":0,"byteOffset":42720,"byteLength":2880,"target":34962},{"buffer":0,"byteOffset":45600,"byteLength":1920,"target":34962},{"buffer":0,"byteOffset":47520,"byteLength":960,"target":34963},{"buffer":0,"byteOffset":48480,"byteLength":2880,"target":34962},{"buffer":0,"byteOffset":51360,"byteLength":2880,"target":34962},{"buffer":0,"byteOffset":54240,"byteLength":1920,"target":34962},{"buffer":0,"byteOffset":56160,"byteLength":960,"target":34963},{"buffer":0,"byteOffset":57120,"byteLength":2880,"target":34962},{"buffer":0,"byteOffset":60000,"byteLength":2880,"target":34962},{"buffer":0,"byteOffset":62880,"byteLength":1920,"target":34962},{"buffer":0,"byteOffset":64800,"byteLength":960,"target":34963},{"buffer":0,"byteOffset":65760,"byteLength":2880,"target":34962},{"buffer":0,"byteOffset":68640,"byteLength":2880,"target":34962},{"buffer":0,"byteOffset":71520,"byteLength":1920,"target":34962},{"buffer":0,"byteOffset":73440,"byteLength":888,"target":34963},{"buffer":0,"byteOffset":74328,"byteLength":2664,"target":34962},{"buffer":0,"byteOffset":76992,"byteLength":2664,"target":34962},{"buffer":0,"byteOffset":79656,"byteLength":1776,"target":34962},{"buffer":0,"byteOffset":81432,"byteLength":888,"target":34963},{"buffer":0,"byteOffset":82320,"byteLength":2664,"target":34962},{"buffer":0,"byteOffset":84984,"byteLength":2664,"target":34962},{"buffer":0,"byteOffset":87648,"byteLength":1776,"target":34962},{"buffer":0,"byteOffset":89424,"byteLength":480,"target":34963},{"buffer":0,"byteOffset":89904,"byteLength":1440,"target":34962},{"buffer":0,"byteOffset":91344,"byteLength":1440,"target":34962},{"buffer":0,"byteOffset":92784,"byteLength":960,"target":34962},{"buffer":0,"byteOffset":93744,"byteLength":480,"target":34963},{"buffer":0,"byteOffset":94224,"byteLength":1440,"target":34962},{"buffer":0,"byteOffset":95664,"byteLength":1440,"target":34962},{"buffer":0,"byteOffset":97104,"byteLength":960,"target":34962},{"buffer":0,"byteOffset":98064,"byteLength":384,"target":34963},{"buffer":0,"byteOffset":98448,"byteLength":1152,"target":34962},{"buffer":0,"byteOffset":99600,"byteLength":1152,"target":34962},{"buffer":0,"byteOffset":100752,"byteLength":768,"target":34962},{"buffer":0,"byteOffset":101520,"byteLength":576,"target":34963},{"buffer":0,"byteOffset":102096,"byteLength":1728,"target":34962},{"buffer":0,"byteOffset":103824,"byteLength":1728,"target":34962},{"buffer":0,"byteOffset":105552,"byteLength":1152,"target":34962},{"buffer":0,"byteOffset":106704,"byteLength":576,"target":34963},{"buffer":0,"byteOffset":107280,"byteLength":1728,"target":34962},{"buffer":0,"byteOffset":109008,"byteLength":1728,"target":34962},{"buffer":0,"byteOffset":110736,"byteLength":1152,"target":34962},{"buffer":0,"byteOffset":111888,"byteLength":576,"target":34963},{"buffer":0,"byteOffset":112464,"byteLength":1728,"target":34962},{"buffer":0,"byteOffset":114192,"byteLength":1728,"target":34962},{"buffer":0,"byteOffset":115920,"byteLength":1152,"target":34962}],"cameras":[{"name":"Camera","type":"orthographic","extras":{"targetDistance":1.067519119322165},"orthographic":{"xmag":0.9411687981146363,"ymag":0.6731749708548755,"zfar":60.5317797122135,"znear":0.005159840549411385}}],"scenes":[{"nodes":[0,1,2,3,4,5,6,7,8,9,10,11,14,17,18,19,20,21,24],"name":"face"}],"buffers":[{"byteLength":117072,"uri":"face.bin"}]}